<svg xmlns="http://www.w3.org/2000/svg" width="1200" height="720" viewBox="0 0 1200 720">
  <rect width="1200" height="720" fill="#060e1c"/>
  <rect x="0" y="0" width="1200" height="56" fill="#0d1f35"/>
  <text x="36" y="34" font-family="system-ui,sans-serif" font-size="15" font-weight="700" fill="#00d4aa">AccessBot</text>
  <text x="200" y="34" font-family="system-ui,sans-serif" font-size="13" fill="#c8dff5">Chat</text>
  <text x="270" y="34" font-family="system-ui,sans-serif" font-size="13" fill="#c8dff5">Check-in</text>
  <text x="360" y="34" font-family="system-ui,sans-serif" font-size="13" fill="#00d4aa" font-weight="600">Insights</text>
  <text x="440" y="34" font-family="system-ui,sans-serif" font-size="13" fill="#c8dff5">Resources</text>

  <text x="600" y="100" font-family="system-ui,sans-serif" font-size="22" font-weight="700" fill="#e0efff" text-anchor="middle">📊 Wellness Insights</text>

  <!-- stat cards row -->
  <rect x="120" y="118" width="200" height="90" rx="12" fill="#0d1f35" stroke="#1b3650" stroke-width="1"/>
  <text x="220" y="150" font-family="system-ui,sans-serif" font-size="12" fill="#7ca3c8" text-anchor="middle">Current Streak</text>
  <text x="220" y="182" font-family="system-ui,sans-serif" font-size="28" font-weight="700" fill="#00d4aa" text-anchor="middle">7 🔥</text>

  <rect x="340" y="118" width="200" height="90" rx="12" fill="#0d1f35" stroke="#1b3650" stroke-width="1"/>
  <text x="440" y="150" font-family="system-ui,sans-serif" font-size="12" fill="#7ca3c8" text-anchor="middle">Avg Mood (7 days)</text>
  <text x="440" y="182" font-family="system-ui,sans-serif" font-size="28" font-weight="700" fill="#00d4aa" text-anchor="middle">4.2 / 5</text>

  <rect x="560" y="118" width="200" height="90" rx="12" fill="#0d1f35" stroke="#1b3650" stroke-width="1"/>
  <text x="660" y="150" font-family="system-ui,sans-serif" font-size="12" fill="#7ca3c8" text-anchor="middle">Check-ins this Month</text>
  <text x="660" y="182" font-family="system-ui,sans-serif" font-size="28" font-weight="700" fill="#00d4aa" text-anchor="middle">18</text>

  <rect x="780" y="118" width="200" height="90" rx="12" fill="#0d1f35" stroke="#1b3650" stroke-width="1"/>
  <text x="880" y="150" font-family="system-ui,sans-serif" font-size="12" fill="#7ca3c8" text-anchor="middle">Best Streak</text>
  <text x="880" y="182" font-family="system-ui,sans-serif" font-size="28" font-weight="700" fill="#00d4aa" text-anchor="middle">14 days</text>

  <!-- mood chart area -->
  <rect x="120" y="228" width="680" height="220" rx="12" fill="#0d1f35" stroke="#1b3650" stroke-width="1"/>
  <text x="145" y="254" font-family="system-ui,sans-serif" font-size="13" font-weight="600" fill="#c8dff5">Mood Trend — Last 14 Days</text>
  <!-- chart bars -->
  <rect x="155" y="390" width="32" height="40" rx="4" fill="#00d4aa" opacity="0.7"/>
  <rect x="205" y="360" width="32" height="70" rx="4" fill="#00d4aa" opacity="0.7"/>
  <rect x="255" y="380" width="32" height="50" rx="4" fill="#00d4aa" opacity="0.7"/>
  <rect x="305" y="340" width="32" height="90" rx="4" fill="#00d4aa" opacity="0.85"/>
  <rect x="355" y="330" width="32" height="100" rx="4" fill="#00d4aa" opacity="0.9"/>
  <rect x="405" y="360" width="32" height="70" rx="4" fill="#00d4aa" opacity="0.7"/>
  <rect x="455" y="320" width="32" height="110" rx="4" fill="#00d4aa"/>
  <rect x="505" y="345" width="32" height="85" rx="4" fill="#00d4aa" opacity="0.85"/>
  <rect x="555" y="310" width="32" height="120" rx="4" fill="#00d4aa"/>
  <rect x="605" y="300" width="32" height="130" rx="4" fill="#00d4aa"/>
  <rect x="655" y="325" width="32" height="105" rx="4" fill="#00d4aa" opacity="0.9"/>
  <rect x="705" y="285" width="32" height="145" rx="4" fill="#00d4aa"/>
  <line x1="145" y1="430" x2="750" y2="430" stroke="#1b3650" stroke-width="1"/>

  <!-- weekly summary -->
  <rect x="820" y="228" width="260" height="220" rx="12" fill="#0d1f35" stroke="#1b3650" stroke-width="1"/>
  <text x="840" y="254" font-family="system-ui,sans-serif" font-size="13" font-weight="600" fill="#c8dff5">This Week</text>
  <text x="840" y="280" font-family="system-ui,sans-serif" font-size="12" fill="#7ca3c8">Mon 😊  Mood: 4/5</text>
  <text x="840" y="302" font-family="system-ui,sans-serif" font-size="12" fill="#7ca3c8">Tue 🙂  Mood: 3/5</text>
  <text x="840" y="324" font-family="system-ui,sans-serif" font-size="12" fill="#7ca3c8">Wed 😊  Mood: 5/5</text>
  <text x="840" y="346" font-family="system-ui,sans-serif" font-size="12" fill="#7ca3c8">Thu 😊  Mood: 5/5</text>
  <text x="840" y="368" font-family="system-ui,sans-serif" font-size="12" fill="#00d4aa">Fri 😄  Mood: 5/5  🔥</text>
  <text x="840" y="396" font-family="system-ui,sans-serif" font-size="12" fill="#4a6a8a">Sat – no check-in</text>
  <text x="840" y="418" font-family="system-ui,sans-serif" font-size="12" fill="#4a6a8a">Sun – no check-in</text>

  <!-- placeholder label -->
  <rect x="380" y="500" width="440" height="80" rx="12" fill="#0a1628" stroke="#1b3650" stroke-width="1" stroke-dasharray="6,4"/>
  <text x="600" y="535" font-family="system-ui,sans-serif" font-size="14" font-weight="600" fill="#4a6a8a" text-anchor="middle">📸 Replace with real screenshot</text>
  <text x="600" y="558" font-family="system-ui,sans-serif" font-size="12" fill="#2a4a6a" text-anchor="middle">img/insights-demo.png — Wellness Insights Page</text>
</svg>
