<svg xmlns="http://www.w3.org/2000/svg" width="1200" height="720" viewBox="0 0 1200 720">
  <rect width="1200" height="720" fill="#060e1c"/>
  <rect x="0" y="0" width="1200" height="56" fill="#0d1f35"/>
  <text x="36" y="34" font-family="system-ui,sans-serif" font-size="15" font-weight="700" fill="#00d4aa">AccessBot</text>
  <text x="200" y="34" font-family="system-ui,sans-serif" font-size="13" fill="#c8dff5">Chat</text>
  <text x="270" y="34" font-family="system-ui,sans-serif" font-size="13" fill="#c8dff5">Check-in</text>
  <text x="360" y="34" font-family="system-ui,sans-serif" font-size="13" fill="#c8dff5">Insights</text>
  <text x="440" y="34" font-family="system-ui,sans-serif" font-size="13" fill="#c8dff5">Resources</text>
  <text x="530" y="34" font-family="system-ui,sans-serif" font-size="13" fill="#00d4aa" font-weight="600">Settings</text>

  <text x="600" y="100" font-family="system-ui,sans-serif" font-size="22" font-weight="700" fill="#e0efff" text-anchor="middle">⚙️ Settings</text>

  <!-- AI Model card -->
  <rect x="200" y="120" width="800" height="200" rx="14" fill="#0d1f35" stroke="#1b3650" stroke-width="1"/>
  <text x="228" y="150" font-family="system-ui,sans-serif" font-size="14" font-weight="700" fill="#c8dff5">AI Model Configuration</text>

  <text x="228" y="180" font-family="system-ui,sans-serif" font-size="12" fill="#7ca3c8">Provider</text>
  <rect x="228" y="188" width="200" height="36" rx="8" fill="#0a1628" stroke="#1b3650" stroke-width="1"/>
  <text x="248" y="212" font-family="system-ui,sans-serif" font-size="13" fill="#c8dff5">openai</text>

  <text x="448" y="180" font-family="system-ui,sans-serif" font-size="12" fill="#7ca3c8">Model Name</text>
  <rect x="448" y="188" width="240" height="36" rx="8" fill="#0a1628" stroke="#1b3650" stroke-width="1"/>
  <text x="468" y="212" font-family="system-ui,sans-serif" font-size="13" fill="#c8dff5">mistral-7b-instruct</text>

  <text x="228" y="248" font-family="system-ui,sans-serif" font-size="12" fill="#7ca3c8">API Endpoint</text>
  <rect x="228" y="256" width="460" height="36" rx="8" fill="#0a1628" stroke="#1b3650" stroke-width="1"/>
  <text x="248" y="280" font-family="system-ui,sans-serif" font-size="13" fill="#c8dff5">http://host.docker.internal:1234</text>

  <rect x="840" y="256" width="110" height="36" rx="8" fill="#00d4aa"/>
  <text x="895" y="280" font-family="system-ui,sans-serif" font-size="13" font-weight="700" fill="#060e1c" text-anchor="middle">Save</text>

  <!-- Accessibility card -->
  <rect x="200" y="340" width="380" height="190" rx="14" fill="#0d1f35" stroke="#1b3650" stroke-width="1"/>
  <text x="228" y="370" font-family="system-ui,sans-serif" font-size="14" font-weight="700" fill="#c8dff5">Accessibility</text>
  <text x="228" y="400" font-family="system-ui,sans-serif" font-size="12" fill="#7ca3c8">Colour Theme</text>
  <!-- theme buttons row -->
  <rect x="228" y="410" width="70" height="32" rx="8" fill="#00d4aa"/>
  <text x="263" y="430" font-family="system-ui,sans-serif" font-size="11" fill="#060e1c" text-anchor="middle">Default</text>
  <rect x="308" y="410" width="70" height="32" rx="8" fill="#0a1628" stroke="#1b3650" stroke-width="1"/>
  <text x="343" y="430" font-family="system-ui,sans-serif" font-size="11" fill="#7ca3c8" text-anchor="middle">Ocean</text>
  <rect x="388" y="410" width="70" height="32" rx="8" fill="#0a1628" stroke="#1b3650" stroke-width="1"/>
  <text x="423" y="430" font-family="system-ui,sans-serif" font-size="11" fill="#7ca3c8" text-anchor="middle">Forest</text>
  <rect x="468" y="410" width="80" height="32" rx="8" fill="#0a1628" stroke="#1b3650" stroke-width="1"/>
  <text x="508" y="430" font-family="system-ui,sans-serif" font-size="11" fill="#7ca3c8" text-anchor="middle">High Cont.</text>
  <text x="228" y="468" font-family="system-ui,sans-serif" font-size="12" fill="#7ca3c8">Font Size</text>
  <rect x="228" y="476" width="320" height="8" rx="4" fill="#0a1628"/>
  <rect x="228" y="476" width="160" height="8" rx="4" fill="#00d4aa"/>
  <circle cx="388" cy="480" r="12" fill="#00d4aa"/>
  <text x="228" y="512" font-family="system-ui,sans-serif" font-size="12" fill="#7ca3c8">Letter Spacing</text>

  <!-- Account card -->
  <rect x="600" y="340" width="400" height="190" rx="14" fill="#0d1f35" stroke="#1b3650" stroke-width="1"/>
  <text x="628" y="370" font-family="system-ui,sans-serif" font-size="14" font-weight="700" fill="#c8dff5">Account</text>
  <text x="628" y="400" font-family="system-ui,sans-serif" font-size="12" fill="#7ca3c8">Username</text>
  <rect x="628" y="408" width="344" height="36" rx="8" fill="#0a1628" stroke="#1b3650" stroke-width="1"/>
  <text x="648" y="432" font-family="system-ui,sans-serif" font-size="13" fill="#c8dff5">john_doe</text>
  <text x="628" y="462" font-family="system-ui,sans-serif" font-size="12" fill="#7ca3c8">New Password</text>
  <rect x="628" y="470" width="344" height="36" rx="8" fill="#0a1628" stroke="#1b3650" stroke-width="1"/>
  <text x="648" y="494" font-family="system-ui,sans-serif" font-size="13" fill="#4a6a8a">••••••••</text>

  <!-- placeholder label -->
  <rect x="380" y="580" width="440" height="80" rx="12" fill="#0a1628" stroke="#1b3650" stroke-width="1" stroke-dasharray="6,4"/>
  <text x="600" y="615" font-family="system-ui,sans-serif" font-size="14" font-weight="600" fill="#4a6a8a" text-anchor="middle">📸 Replace with real screenshot</text>
  <text x="600" y="638" font-family="system-ui,sans-serif" font-size="12" fill="#2a4a6a" text-anchor="middle">img/settings-demo.png — Settings Page (AI + Accessibility)</text>
</svg>
